<?xml version="1.0" encoding="UTF-8" standalone="no"?>
<svg width="34px" height="19px" viewBox="0 0 34 19" version="1.1" xmlns="http://www.w3.org/2000/svg" xmlns:xlink="http://www.w3.org/1999/xlink">
    <!-- Generator: Sketch 46.2 (44496) - http://www.bohemiancoding.com/sketch -->
    <defs></defs>
    <g stroke="none" stroke-width="1" fill="none" fill-rule="evenodd">
        <g transform="translate(-848.000000, -270.000000)">
            <g transform="translate(848.000000, 270.000000)">
                <polygon fill="#FFAE00" transform="translate(20.836756, 6.581303) rotate(-15.000000) translate(-20.836756, -6.581303) " points="10.3367556 2.58130328 31.3367556 2.58130328 31.3367556 10.5813033 10.3367556 10.5813033"></polygon>
                <polygon fill="#054186" transform="translate(21.613213, 9.479081) rotate(-15.000000) translate(-21.613213, -9.479081) " points="11.1132128 2.47908076 21.6132128 10.2085735 32.1132128 2.47908076 32.1132128 16.4790808 11.1132128 16.4790808"></polygon>
                <rect fill="#054186" transform="translate(4.122522, 7.954040) rotate(-15.000000) translate(-4.122522, -7.954040) " x="0.12252235" y="6.95404004" width="8" height="2"></rect>
                <rect fill="#054186" transform="translate(6.123724, 11.558924) rotate(-15.000000) translate(-6.123724, -11.558924) " x="3.12372436" y="10.5589243" width="6" height="2"></rect>
                <rect fill="#054186" transform="translate(8.124926, 15.163809) rotate(-15.000000) translate(-8.124926, -15.163809) " x="6.12492636" y="14.1638086" width="4" height="2"></rect>
            </g>
        </g>
    </g>
</svg>
