<?xml version="1.0" encoding="UTF-8" standalone="no"?>
<svg width="30px" height="30px" viewBox="0 0 30 30" version="1.1" xmlns="http://www.w3.org/2000/svg" xmlns:xlink="http://www.w3.org/1999/xlink">
    <!-- Generator: sketchtool 46.2 (44496) - http://www.bohemiancoding.com/sketch -->
    <title>59D6651F-548E-4E8A-B366-A55E40CB5049</title>
    <desc>Created with sketchtool.</desc>
    <defs></defs>
    <g id="Page-1" stroke="none" stroke-width="1" fill="none" fill-rule="evenodd">
        <g id="RigoBlock-Home-HD-New" transform="translate(-1352.000000, -34.000000)" fill="#054186">
            <path d="M1352,49 C1352,40.7157283 1358.71573,34 1367,34 C1375.28427,34 1382,40.7157283 1382,49 C1382,57.2842717 1375.28427,64 1367,64 C1358.71573,64 1352,57.2842717 1352,49 Z M1370.40617,48.2017599 C1369.47815,48.2017599 1368.7455,49.0252809 1368.7455,50.0504806 C1368.7455,51.0756803 1369.49443,51.8992013 1370.40617,51.8992013 C1371.33419,51.8992013 1372.06684,51.0756803 1372.06684,50.0504806 C1372.06684,49.0252809 1371.31791,48.2017599 1370.40617,48.2017599 Z M1364.46358,48.2017599 C1363.53556,48.2017599 1362.80291,49.0252809 1362.80291,50.0504806 C1362.80291,51.0756803 1363.55184,51.8992013 1364.46358,51.8992013 C1365.3916,51.8992013 1366.12425,51.0756803 1366.12425,50.0504806 C1366.14053,49.0252809 1365.3916,48.2017599 1364.46358,48.2017599 Z M1372.03428,55.9831934 C1372.03428,55.9831934 1371.44816,55.2605117 1370.95973,54.6386693 C1373.09254,54.0168269 1373.9066,52.6554961 1373.9066,52.6554961 C1373.23907,53.109273 1372.60411,53.4285975 1372.03428,53.6470827 C1371.22022,54.0000203 1370.43873,54.2185055 1369.67352,54.3697645 C1368.11054,54.6722824 1366.67781,54.5882496 1365.45673,54.3529579 C1364.52871,54.1680858 1363.73093,53.9159875 1363.06341,53.6302762 C1362.68895,53.4790172 1362.28192,53.2941451 1361.87489,53.0588534 C1361.82605,53.0252403 1361.77721,53.0084337 1361.72836,52.9748206 C1361.6958,52.9580141 1361.67952,52.9412075 1361.66324,52.9412075 C1361.37018,52.773142 1361.20737,52.6554961 1361.20737,52.6554961 C1361.20737,52.6554961 1361.98886,53.9832138 1364.05656,54.6218627 C1363.56812,55.2605117 1362.96572,56 1362.96572,56 C1359.36761,55.8823541 1358,53.4622106 1358,53.4622106 C1358,48.1009205 1360.34447,43.7480236 1360.34447,43.7480236 C1362.68895,41.9497225 1364.90317,42.0001421 1364.90317,42.0001421 L1365.06598,42.2018208 C1362.13539,43.0589549 1360.80034,44.3866725 1360.80034,44.3866725 C1360.80034,44.3866725 1361.15853,44.1849939 1361.76093,43.9160891 C1363.503,43.1261811 1364.88689,42.9245025 1365.45673,42.8572763 C1365.55441,42.8404698 1365.63582,42.8236632 1365.7335,42.8236632 C1366.72665,42.6892108 1367.85004,42.6555977 1369.02228,42.7900501 C1370.56898,42.9749222 1372.22965,43.4455056 1373.92288,44.3866725 C1373.92288,44.3866725 1372.63668,43.1261811 1369.86889,42.269047 L1370.09683,42.0001421 C1370.09683,42.0001421 1372.32734,41.9497225 1374.65553,43.7480236 C1374.65553,43.7480236 1377,48.1009205 1377,53.4622106 C1377,53.4454041 1375.63239,55.8655476 1372.03428,55.9831934 L1372.03428,55.9831934 Z" id="Discord"></path>
        </g>
    </g>
</svg>