<?xml version="1.0" encoding="UTF-8" standalone="no"?>
<svg width="30px" height="30px" viewBox="0 0 30 30" version="1.1" xmlns="http://www.w3.org/2000/svg" xmlns:xlink="http://www.w3.org/1999/xlink">
    <!-- Generator: sketchtool 46.2 (44496) - http://www.bohemiancoding.com/sketch -->
    <title>Facebook</title>
    <desc>Created with sketchtool.</desc>
    <defs></defs>
    <g  stroke="none" stroke-width="1" fill="none" fill-rule="evenodd">
        <g  transform="translate(-1225.000000, -34.000000)" fill="#054186">
            <path d="M1241.06347,57.3196729 L1241.06347,49.158881 L1243.31621,49.158881 L1243.61474,46.3466269 L1241.06347,46.3466269 L1241.0673,44.9390667 C1241.0673,44.2055875 1241.13699,43.8125726 1242.19048,43.8125726 L1243.5988,43.8125726 L1243.5988,41 L1241.34574,41 C1238.63946,41 1237.68692,42.3642458 1237.68692,44.6584782 L1237.68692,46.3469454 L1236,46.3469454 L1236,49.1591995 L1237.68692,49.1591995 L1237.68692,57.3196729 L1241.06347,57.3196729 Z M1225,49 C1225,40.7157283 1231.71573,34 1240,34 C1248.28427,34 1255,40.7157283 1255,49 C1255,57.2842717 1248.28427,64 1240,64 C1231.71573,64 1225,57.2842717 1225,49 Z" ></path>
        </g>
    </g>
</svg>
