<?xml version="1.0" encoding="UTF-8" standalone="no"?>
<svg width="30px" height="30px" viewBox="0 0 30 30" version="1.1" xmlns="http://www.w3.org/2000/svg" xmlns:xlink="http://www.w3.org/1999/xlink">
    <!-- Generator: sketchtool 46.2 (44496) - http://www.bohemiancoding.com/sketch -->
    <title>AFBA5938-6E97-47BE-9F9D-B19652A0EB33</title>
    <desc>Created with sketchtool.</desc>
    <defs></defs>
    <g  stroke="none" stroke-width="1" fill="none" fill-rule="evenodd">
        <g  transform="translate(-1182.000000, -34.000000)" fill="#054186">
            <path d="M1197.00012,34 C1188.71687,34 1182,40.6943258 1182,48.9525427 C1182,55.5589677 1186.29799,61.1638189 1192.258,63.1409676 C1193.00766,63.2793804 1193.28288,62.8166013 1193.28288,62.4216668 C1193.28288,62.0651115 1193.26897,60.887241 1193.26251,59.6378118 C1189.08946,60.5423232 1188.2089,57.8736059 1188.2089,57.8736059 C1187.52656,56.1453031 1186.54341,55.6857429 1186.54341,55.6857429 C1185.18245,54.7577087 1186.64599,54.7767745 1186.64599,54.7767745 C1188.15227,54.8822555 1188.94539,56.3176381 1188.94539,56.3176381 C1190.28325,58.6035538 1192.45448,57.9426885 1193.31045,57.5606295 C1193.44508,56.5942161 1193.83382,55.9345888 1194.2628,55.5611962 C1190.93107,55.183099 1187.42869,53.9009856 1187.42869,48.1715876 C1187.42869,46.539109 1188.01466,45.2052455 1188.97421,44.158112 C1188.81846,43.7815004 1188.30503,42.260693 1189.11952,40.2010909 C1189.11952,40.2010909 1190.37913,39.7992234 1193.24562,41.7337835 C1194.44214,41.4024842 1195.72536,41.2363394 1197.00012,41.2306444 C1198.27489,41.2363394 1199.5591,41.4024842 1200.75786,41.7337835 C1203.62087,39.7992234 1204.87874,40.2010909 1204.87874,40.2010909 C1205.69522,42.260693 1205.18154,43.7815004 1205.02579,44.158112 C1205.98758,45.2052455 1206.56957,46.539109 1206.56957,48.1715876 C1206.56957,53.914604 1203.06048,55.1791373 1199.72031,55.549311 C1200.25833,56.0133281 1200.73774,56.9232869 1200.73774,58.3183096 C1200.73774,60.318981 1200.72035,61.9291748 1200.72035,62.4216668 C1200.72035,62.8195726 1200.99035,63.2858182 1201.75069,63.1389867 C1207.70747,61.1596096 1212,55.5567392 1212,48.9525427 C1212,40.6943258 1205.28412,34 1197.00012,34" ></path>
        </g>
    </g>
</svg>
