<?xml version="1.0" encoding="UTF-8" standalone="no"?>
<svg width="30px" height="30px" viewBox="0 0 30 30" version="1.1" xmlns="http://www.w3.org/2000/svg" xmlns:xlink="http://www.w3.org/1999/xlink">
    <!-- Generator: sketchtool 46.2 (44496) - http://www.bohemiancoding.com/sketch -->
    <title>DD597CA0-2B42-4540-ABAB-5FCDD0A20979</title>
    <desc>Created with sketchtool.</desc>
    <defs></defs>
    <g  stroke="none" stroke-width="1" fill="none" fill-rule="evenodd">
        <g  transform="translate(-1310.000000, -34.000000)" fill="#054186">
            <path d="M1320.60034,46.4236552 L1320.60034,56.6372248 L1317.20101,56.6372248 L1317.20101,46.4236552 L1320.60034,46.4236552 Z M1320.82423,43.2641861 C1320.82423,44.2448769 1320.08603,45.0295923 1318.90074,45.0295923 L1318.87902,45.0295923 C1317.73779,45.0295923 1317,44.2448769 1317,43.2641861 C1317,42.262752 1317.76026,41.5 1318.92315,41.5 C1320.08603,41.5 1320.80216,42.262752 1320.82423,43.2641861 Z M1332.85962,50.7810761 L1332.85948,56.6372248 L1329.46029,56.6372248 L1329.46029,51.1729593 C1329.46029,49.8004531 1328.96839,48.8638923 1327.73781,48.8638923 C1326.79868,48.8638923 1326.2393,49.4952709 1325.99362,50.1050929 C1325.90374,50.3236418 1325.88167,50.6281461 1325.88167,50.9333961 L1325.88167,56.637496 L1322.48194,56.637496 C1322.48194,56.637496 1322.52674,47.3823149 1322.48194,46.4239263 L1325.88167,46.4239263 L1325.88167,47.8705928 C1326.33284,47.1751544 1327.14089,46.1838208 1328.94571,46.1838208 C1331.18263,46.1838208 1332.85962,47.6439093 1332.85962,50.7810761 Z M1310,49 C1310,40.7157283 1316.71573,34 1325,34 C1333.28427,34 1340,40.7157283 1340,49 C1340,57.2842717 1333.28427,64 1325,64 C1316.71573,64 1310,57.2842717 1310,49 Z" ></path>
        </g>
    </g>
</svg>
