<?xml version="1.0" encoding="UTF-8" standalone="no"?>
<svg width="255px" height="51px" viewBox="0 0 255 51" version="1.1" xmlns="http://www.w3.org/2000/svg" xmlns:xlink="http://www.w3.org/1999/xlink">
    <!-- Generator: sketchtool 46.2 (44496) - http://www.bohemiancoding.com/sketch -->
    <title>61A096D4-A77D-4A21-9F5F-FF763212E8EB</title>
    <desc>Created with sketchtool.</desc>
    <defs>
        <polygon id="path-1" points="0 51 255 51 255 0 0 0"></polygon>
    </defs>
    <g id="Page-1" stroke="none" stroke-width="1" fill="none" fill-rule="evenodd">
        <g id="RigoBlock-Home-HD-New" transform="translate(-33.000000, -18.000000)">
            <g id="Page-1" transform="translate(33.000000, 18.000000)">
                <path d="M67.0883434,23.9156886 C69.0851395,23.9156886 70.5294478,22.7752914 70.5294478,21.0421557 C70.5294478,19.2255615 69.0851395,18.169232 67.0883434,18.169232 L62.7554184,18.169232 L62.7554184,23.9156886 L67.0883434,23.9156886 Z M56,12 L67.895637,12 C73.5877309,12 77.2419902,16.0571823 77.2419902,21.0421557 C77.2419902,24.929375 75.1600547,27.4227755 71.3373539,28.7745604 L82,42 L73.8860253,42 L63.8597814,29.6195021 L62.7554184,29.6195021 L62.7554184,42 L56,42 L56,12 Z" id="Fill-1" fill="#054186"></path>
                <g id="Clip-4"></g>
                <path d="M83.8048818,42 L90.1957285,42 L90.1957285,20.8359143 L83.8048818,20.8359143 L83.8048818,42 Z M83,13.979556 C83,11.77771 84.8202899,10 86.9786423,10 C89.2224256,10 91,11.77771 91,13.979556 C91,16.1801816 89.2224256,17.9572813 86.9786423,17.9572813 C84.8202899,17.9572813 83,16.1801816 83,13.979556 L83,13.979556 Z" id="Fill-3" fill="#054186" mask="url(#mask-2)"></path>
                <path d="M110.863187,30.7017104 C110.863187,27.7291831 108.479619,25.8177042 105.786728,25.8177042 C103.094474,25.8177042 100.710269,27.7291831 100.710269,30.7017104 C100.710269,33.6742376 103.094474,35.5857165 105.786728,35.5857165 C108.479619,35.5857165 110.863187,33.6742376 110.863187,30.7017104 M94.9712483,42.84652 L101.4613,42.84652 C102.167142,44.8431032 103.66793,45.691697 105.91975,45.691697 C108.214849,45.691697 110.333647,44.333702 110.333647,41.3183165 L110.333647,38.8123321 C109.318482,40.2560436 107.022747,41.4034208 104.329856,41.4034208 C98.6793038,41.4034208 94,36.6467649 94,30.7017104 C94,24.7560436 98.6793038,20 104.329856,20 C107.022747,20 109.318482,21.1467649 110.333647,22.5910886 L110.333647,20.4671552 L117,20.4671552 L117,40.3833939 C117,48.2405396 111.43728,51 105.742176,51 C99.4303346,51 95.3244874,47.4329673 94.9712483,42.84652" id="Fill-5" fill="#054186" mask="url(#mask-2)"></path>
                <path d="M137.353188,31 C137.353188,28.0074021 135.255057,25.9426614 132.50063,25.9426614 C129.746204,25.9426614 127.646812,28.0074021 127.646812,31 C127.646812,33.9919903 129.746204,36.0573386 132.50063,36.0573386 C135.255057,36.0573386 137.353188,33.9919903 137.353188,31 M121,31 C121,24.8051704 126.203086,20 132.50063,20 C138.797544,20 144,24.8051704 144,31 C144,37.1954372 138.797544,42 132.50063,42 C126.203086,42 121,37.1954372 121,31" id="Fill-6" fill="#054186" mask="url(#mask-2)"></path>
                <path d="M162.26382,31.0249512 C162.26382,27.997916 160.22629,25.8105451 157.212484,25.8105451 C154.198678,25.8105451 152.160509,27.997916 152.160509,31.0249512 C152.160509,34.0525927 154.198678,36.2393574 157.212484,36.2393574 C160.22629,36.2393574 162.26382,34.0525927 162.26382,31.0249512 M152.692733,39.4349317 L152.692733,41.5374268 L146,41.5374268 L146,10 L152.692733,10 L152.692733,22.615577 C153.578282,21.4800599 155.749986,20.0499024 158.718429,20.0499024 C164.523696,20.0499024 169,25.0539378 169,31.0249512 C169,36.9959646 164.523696,42 158.718429,42 C155.749986,42 153.578282,40.5704488 152.692733,39.4349317" id="Fill-7" fill="#054186" mask="url(#mask-2)"></path>
                <polygon id="Fill-8" fill="#054186" mask="url(#mask-2)" points="173 42 179 42 179 10 173 10"></polygon>
                <path d="M198.353188,31 C198.353188,28.0074021 196.255057,25.9426614 193.49937,25.9426614 C190.744943,25.9426614 188.646812,28.0074021 188.646812,31 C188.646812,33.9919903 190.744943,36.0573386 193.49937,36.0573386 C196.255057,36.0573386 198.353188,33.9919903 198.353188,31 M182,31 C182,24.8051704 187.203086,20 193.49937,20 C199.796283,20 205,24.8051704 205,31 C205,37.1954372 199.796283,42 193.49937,42 C187.203086,42 182,37.1954372 182,31" id="Fill-9" fill="#054186" mask="url(#mask-2)"></path>
                <path d="M208,31 C208,24.8890239 212.900158,20 219.610427,20 C225.878352,20 229.807898,23.7509253 231,28.6824836 L224.112793,28.6824836 C223.318482,26.996299 221.950079,25.7318124 219.610427,25.7318124 C216.828431,25.7318124 214.710269,27.7133072 214.710269,31 C214.710269,34.2873004 216.828431,36.2681876 219.610427,36.2681876 C221.950079,36.2681876 223.318482,35.003701 224.112793,33.3175164 L231,33.3175164 C229.807898,38.2490747 225.878352,42 219.610427,42 C212.900158,42 208,37.1109761 208,31" id="Fill-10" fill="#054186" mask="url(#mask-2)"></path>
                <polygon id="Fill-11" fill="#054186" mask="url(#mask-2)" points="234 10 240.678839 10 240.678839 28.3037293 247.137027 20.6666667 255.054955 20.6666667 246.916376 30.309727 257 42 248.906699 42 240.678839 32.4424452 240.678839 42 234 42"></polygon>
                <path d="M25.9996967,46 C14.9541284,46 6,37.0458716 6,25.9996967 C6,14.9541284 14.9541284,6 25.9996967,6 C37.045265,6 46,14.9541284 46,25.9996967 C46,37.0458716 37.045265,46 25.9996967,46 Z" id="Fill-12" fill="#054186" mask="url(#mask-2)"></path>
                <polygon id="Fill-13" fill="#FFFFFF" mask="url(#mask-2)" points="22.1747264 0 35 35 0 22.2481558"></polygon>
                <polygon id="Fill-14" fill="#FFC957" mask="url(#mask-2)" points="0.00427246094 22.2492523 35 35 18.7477325 19"></polygon>
                <polygon id="Fill-15" fill="#FFAE00" mask="url(#mask-2)" points="21.8799567 0.0922256743 18.7365994 19.1171475 0.0123901367 22.2495575"></polygon>
            </g>
        </g>
    </g>
</svg>
