<?xml version="1.0" encoding="UTF-8" standalone="no"?>
<svg width="29px" height="22px" viewBox="0 0 29 22" version="1.1" xmlns="http://www.w3.org/2000/svg" xmlns:xlink="http://www.w3.org/1999/xlink">
    <!-- Generator: sketchtool 46.2 (44496) - http://www.bohemiancoding.com/sketch -->
    <desc>Created with sketchtool.</desc>
    <defs></defs>
    <g  stroke="none" stroke-width="1" fill="none" fill-rule="evenodd">
        <g  transform="translate(-850.000000, -3012.000000)" stroke="#054186">
            <g  transform="translate(218.000000, 2402.000000)">
                <g  transform="translate(624.000000, 596.000000)">
                    <path d="M32.5,20.75 C31,19.75 27,19.75 25,20.75 M9,17 C13.6666667,14.3333333 18.3333333,14.3333333 23,17 C23,17 23,35 23,35 C18.3333333,32.6666667 13.6666667,32.6666667 9,35 L9,17 Z M22,17 C26.6666667,14.3333333 31.3333333,14.3333333 36,17 C36,17 36,35 36,35 C31.3333333,32.6666667 26.6666667,32.6666667 22,35 M19.5,29.75 C18,28.75 14,28.75 12,29.75 M32.5,29.75 C31,28.75 27,28.75 25,29.75 M19.5,26.75 C18,25.75 14,25.75 12,26.75 M32.5,26.75 C31,25.75 27,25.75 25,26.75 M32.5,23.75 C31,22.75 27,22.75 25,23.75 M19.5,20.75 C18,19.75 14,19.75 12,20.75 M19.5,23.75 C18,22.75 14,22.75 12,23.75" ></path>
                </g>
            </g>
        </g>
    </g>
</svg>
