<?xml version="1.0" encoding="UTF-8" standalone="no"?>
<svg width="28px" height="21px" viewBox="0 0 28 21" version="1.1" xmlns="http://www.w3.org/2000/svg" xmlns:xlink="http://www.w3.org/1999/xlink">
    <!-- Generator: sketchtool 46.2 (44496) - http://www.bohemiancoding.com/sketch -->
    <desc>Created with sketchtool.</desc>
    <defs></defs>
    <g  stroke="none" stroke-width="1" fill="none" fill-rule="evenodd">
        <g  transform="translate(-854.000000, -443.000000)">
            <g  transform="translate(842.000000, 266.000000)">
                <g  transform="translate(12.000000, 177.000000)">
                    <rect  fill="#FFAE00" x="0" y="2" width="28" height="19"></rect>
                    <path d="M0,2 C4.66666667,-0.666666667 9.33333333,-0.666666667 14,2 C14,2 14,20 14,20 C9.33333333,17.6666667 4.66666667,17.6666667 0,20 L0,2 Z M14,2 C18.6666667,-0.666666667 23.3333333,-0.666666667 28,2 C28,2 28,20 28,20 C23.3333333,17.6666667 18.6666667,17.6666667 14,20 L14,2 Z"  fill="#054186"></path>
                    <path d="M24.5,5.75 C23,4.75 19,4.75 17,5.75 M10.5,14.75 C9,13.75 5,13.75 3,14.75 M24.5,14.75 C23,13.75 19,13.75 17,14.75 M10.5,11.75 C9,10.75 5,10.75 3,11.75 M24.5,11.75 C23,10.75 19,10.75 17,11.75 M24.5,8.75 C23,7.75 19,7.75 17,8.75 M10.5,5.75 C9,4.75 5,4.75 3,5.75 M10.5,8.75 C9,7.75 5,7.75 3,8.75"  stroke="#F5F5F5"></path>
                </g>
            </g>
        </g>
    </g>
</svg>
