<?xml version="1.0" encoding="UTF-8" standalone="no"?>
<svg width="30px" height="30px" viewBox="0 0 30 30" version="1.1" xmlns="http://www.w3.org/2000/svg" xmlns:xlink="http://www.w3.org/1999/xlink">
    <!-- Generator: sketchtool 46.2 (44496) - http://www.bohemiancoding.com/sketch -->
    <title>9D2EA59E-6E81-46C6-84FA-4DE5F7047B9C</title>
    <desc>Created with sketchtool.</desc>
    <defs></defs>
    <g id="Page-1" stroke="none" stroke-width="1" fill="none" fill-rule="evenodd">
        <g id="RigoBlock-Home-HD-New" transform="translate(-1140.000000, -34.000000)" fill="#054186">
            <path d="M1152.50521,52.0514084 L1152.25,55.875 C1152.625,55.875 1152.79069,55.7035 1153,55.5 L1154.80169,53.7480777 L1158.55,56.517375 C1159.23981,56.8979875 1159.73768,56.700925 1159.9095,55.8769375 L1162.37013,44.2815625 C1162.62205,43.2715375 1161.98511,42.8134375 1161.3252,43.1130375 L1146.87645,48.6844125 C1145.89019,49.08 1145.89594,49.6302375 1146.69668,49.8754125 L1150.40455,51.0327 L1158.98868,45.617075 C1159.39391,45.3713375 1159.76584,45.5034513 1159.46058,45.774375 L1152.505,52.05125 Z M1155,64 C1146.71573,64 1140,57.2842712 1140,49 C1140,40.7157288 1146.71573,34 1155,34 C1163.28427,34 1170,40.7157288 1170,49 C1170,57.2842712 1163.28427,64 1155,64 Z" id="telegram"></path>
        </g>
    </g>
</svg>