<?xml version="1.0" encoding="UTF-8" standalone="no"?>
<svg width="30px" height="30px" viewBox="0 0 30 30" version="1.1" xmlns="http://www.w3.org/2000/svg" xmlns:xlink="http://www.w3.org/1999/xlink">
    <!-- Generator: sketchtool 46.2 (44496) - http://www.bohemiancoding.com/sketch -->
    <title>855CB397-1834-4D51-BF86-6BBF40508B5F</title>
    <desc>Created with sketchtool.</desc>
    <defs></defs>
    <g  stroke="none" stroke-width="1" fill="none" fill-rule="evenodd">
        <g  transform="translate(-1267.000000, -34.000000)" fill="#054186">
            <path d="M1281.55075,46.1921879 L1281.58223,46.7112217 L1281.05762,46.6476666 C1279.14804,46.4040384 1277.47978,45.5778213 1276.06334,44.1902002 L1275.37085,43.5016859 L1275.19248,44.0101273 C1274.81477,45.1435277 1275.05609,46.3404833 1275.843,47.1455154 C1276.26269,47.5904015 1276.16826,47.6539567 1275.4443,47.3891435 C1275.19248,47.3044033 1274.97215,47.2408481 1274.95116,47.2726257 C1274.87772,47.3467734 1275.12953,48.3106934 1275.32888,48.6920243 C1275.60168,49.2216507 1276.15777,49.7406846 1276.76631,50.0478679 L1277.28043,50.291496 L1276.67188,50.3020885 C1276.08432,50.3020885 1276.06334,50.312681 1276.12629,50.5351241 C1276.33613,51.2236384 1277.16502,51.9545228 1278.08833,52.2722986 L1278.73884,52.4947417 L1278.17227,52.8337025 C1277.33289,53.3209588 1276.34663,53.5963645 1275.36036,53.6175496 C1274.88821,53.6281421 1274.5,53.6705122 1274.5,53.7022898 C1274.5,53.8082151 1275.78005,54.4013966 1276.52499,54.6344322 C1278.75983,55.3229465 1281.41435,55.0263557 1283.40787,53.8505852 C1284.82431,53.0137755 1286.24076,51.3507487 1286.90177,49.7406846 C1287.2585,48.8826898 1287.61524,47.3149958 1287.61524,46.5629263 C1287.61524,46.0756701 1287.64671,46.0121149 1288.23428,45.4295259 C1288.58052,45.090565 1288.90578,44.7198266 1288.96873,44.6139013 C1289.07365,44.4126433 1289.06316,44.4126433 1288.52806,44.5927163 C1287.63622,44.9104921 1287.51032,44.868122 1287.95099,44.3914582 C1288.27625,44.0524974 1288.66446,43.4381308 1288.66446,43.2580578 C1288.66446,43.2262802 1288.50707,43.2792429 1288.32871,43.3745756 C1288.13985,43.4805009 1287.72016,43.6393888 1287.40539,43.7347215 L1286.83882,43.9147945 L1286.3247,43.5652411 C1286.04141,43.3745756 1285.64271,43.1627251 1285.43286,43.0991699 C1284.89776,42.9508745 1284.07937,42.9720596 1283.59673,43.14154 C1282.2852,43.6182037 1281.45632,44.8469369 1281.55075,46.1921879 Z M1267,49 C1267,40.7157283 1273.71573,34 1282,34 C1290.28427,34 1297,40.7157283 1297,49 C1297,57.2842717 1290.28427,64 1282,64 C1273.71573,64 1267,57.2842717 1267,49 Z" ></path>
        </g>
    </g>
</svg>
