<?xml version="1.0" encoding="UTF-8" standalone="no"?>
<svg width="13px" height="76px" viewBox="0 0 13 76" version="1.1" xmlns="http://www.w3.org/2000/svg" xmlns:xlink="http://www.w3.org/1999/xlink">
    <!-- Generator: sketchtool 46.2 (44496) - http://www.bohemiancoding.com/sketch -->
    <title>F2AF10B3-572F-4253-BCB4-996090782314</title>
    <desc>Created with sketchtool.</desc>
    <defs></defs>
    <g id="Page-1" stroke="none" stroke-width="1" fill="none" fill-rule="evenodd">
        <g id="RigoBlock-Video-HD-New" transform="translate(-1343.000000, -900.000000)">
            <g id="Close" transform="translate(1343.000000, 900.000000)">
                <path d="M-13.36,56.192 C-10.4,56.192 -8.384,54.24 -7.936,52.288 L-9.216,52.288 C-9.712,53.808 -11.28,55.04 -13.36,55.04 C-16,55.04 -18,52.976 -18,50.32 C-18,47.664 -16,45.6 -13.36,45.6 C-11.28,45.6 -9.712,46.832 -9.216,48.352 L-7.936,48.352 C-8.384,46.4 -10.4,44.448 -13.36,44.448 C-16.64,44.448 -19.232,47.008 -19.232,50.32 C-19.232,53.632 -16.64,56.192 -13.36,56.192 Z M-5.76,56 L1.136,56 L1.136,54.848 L-4.544,54.848 L-4.544,44.64 L-5.76,44.64 L-5.76,56 Z M8.048,56.192 C4.768,56.192 2.176,53.632 2.176,50.32 C2.176,47.008 4.768,44.448 8.048,44.448 C11.328,44.448 13.92,47.008 13.92,50.32 C13.92,53.632 11.328,56.192 8.048,56.192 Z M8.048,55.04 C10.688,55.04 12.688,52.976 12.688,50.32 C12.688,47.664 10.688,45.6 8.048,45.6 C5.408,45.6 3.408,47.664 3.408,50.32 C3.408,52.976 5.408,55.04 8.048,55.04 Z M19.248,56.192 C21.28,56.192 22.768,55.04 22.768,53.136 C22.768,51.456 21.824,50.512 20.128,49.856 L18.624,49.28 C17.472,48.832 16.928,48.336 16.928,47.296 C16.928,46.256 17.84,45.6 19.008,45.6 C20.016,45.6 20.992,46.144 21.296,47.408 L22.512,47.408 C22.352,45.984 21.312,44.448 19.056,44.448 C17.152,44.448 15.712,45.52 15.712,47.312 C15.712,48.864 16.464,49.792 18.224,50.464 L19.904,51.104 C20.944,51.504 21.552,52.176 21.552,53.168 C21.552,54.336 20.512,55.04 19.232,55.04 C18.144,55.04 16.784,54.448 16.656,53.104 L15.44,53.104 C15.488,54.8 16.976,56.192 19.248,56.192 Z M25.136,56 L31.616,56 L31.616,54.848 L26.352,54.848 L26.352,50.736 L30.656,50.736 L30.656,49.584 L26.352,49.584 L26.352,45.792 L31.616,45.792 L31.616,44.64 L25.136,44.64 L25.136,56 Z" id="CLOSE" fill="#054186" transform="translate(6.192000, 50.320000) rotate(-270.000000) translate(-6.192000, -50.320000) "></path>
                <g id="Group-5" stroke="#054186" stroke-linecap="square">
                    <path d="M0.5,0.5 L12.0108644,12.0108644" id="Line-6"></path>
                    <path d="M0.5,0.5 L12.0108644,12.0108644" id="Line-6" transform="translate(6.500000, 6.500000) scale(1, -1) translate(-6.500000, -6.500000) "></path>
                </g>
            </g>
        </g>
    </g>
</svg>